<?xml version="1.0" encoding="utf-8"?>
<!-- Generator: Adobe Illustrator 27.0.1, SVG Export Plug-In . SVG Version: 6.00 Build 0)  -->
<svg version="1.1" id="icons" xmlns="http://www.w3.org/2000/svg" xmlns:xlink="http://www.w3.org/1999/xlink" x="0px" y="0px"
	 viewBox="0 0 64 64" style="enable-background:new 0 0 64 64;" xml:space="preserve">
<style type="text/css">
	.st0{fill:#FFFFFF;}
</style>
<path class="st0" d="M60.5,18.7C60.1,18.3,59.6,18,59,18H48.8c-1-7.4-7.3-13-14.8-13h-4c-7.5,0-13.8,5.6-14.9,13H5
	c-0.6,0-1.1,0.3-1.5,0.7c-0.4,0.4-0.6,1.1-0.5,1.6l5.3,30.3c0.6,3.1,3.3,5.4,6.4,5.3h34.5c3.2,0,5.9-2.3,6.4-5.4L61,20.3
	C61.1,19.8,60.9,19.2,60.5,18.7z M30,9h4c5.3,0,9.8,3.8,10.8,9H19.2C20.2,12.8,24.7,9,30,9z M51.7,49.9c-0.2,1.2-1.3,2.1-2.5,2.1
	H14.8c-1.2,0-2.2-0.8-2.5-2L7.4,22h49.2L51.7,49.9z"/>
</svg>
